<svg width="500" height="500" viewBox="0 0 500 500" fill="none" xmlns="http://www.w3.org/2000/svg">
<path d="M185.849 142.727C195.479 146.017 205.349 149.437 213.149 155.987C220.559 162.207 225.529 170.797 230.019 179.367C235.019 188.987 239.689 198.877 242.799 209.277C249.309 231.017 248.959 254.127 248.559 276.817L247.559 335.057C247.419 342.827 247.289 350.597 246.649 358.337C246.049 365.717 244.999 373.077 244.909 380.477C244.739 394.757 248.129 408.817 251.499 422.687C235.899 426.937 221.059 415.297 206.499 408.237C184.189 397.417 158.179 396.927 135.119 387.797C123.395 383.148 112.644 376.347 103.419 367.747C101.869 366.307 100.309 364.747 99.7786 362.667C99.4595 360.795 99.5828 358.873 100.139 357.057C115.349 288.817 116.519 218.257 114.669 148.357C114.499 142.127 114.429 135.477 117.769 130.217C124.309 119.907 136.709 125.807 145.319 128.877C158.759 133.667 172.339 138.107 185.849 142.727Z" fill="#B26F6F"/>
<path d="M50.2086 161.137C46.2086 162.827 41.7886 164.817 39.8886 168.767C38.2186 172.217 38.8886 176.277 39.1886 180.107C40.6586 199.737 30.7686 218.287 27.4886 237.697C23.8586 259.097 28.3586 280.967 28.2286 302.697C28.1586 314.997 26.5886 327.327 24.9786 339.597L16.5886 405.167C16.2486 407.887 15.9186 410.757 17.0386 413.257C19.8786 419.587 29.0386 418.967 35.6286 416.977C50.3086 412.587 64.4586 406.617 78.5686 400.657C87.2786 396.977 96.2086 393.157 102.969 386.547C118.589 371.267 118.169 346.547 118.479 324.737C119.009 287.737 124.669 251.137 127.969 214.367C129.659 195.467 130.759 176.467 130.169 157.487C129.999 152.117 131.639 137.287 127.359 133.437C123.079 129.587 114.799 134.287 110.429 136.067C90.3186 144.257 70.2986 152.787 50.2086 161.137Z" fill="#891919"/>
<path d="M379.979 249.847C380.209 264.537 378.039 279.157 377.679 293.847C377.239 311.927 379.529 329.967 382.379 347.847C384.759 362.747 389.279 379.847 403.179 385.757L406.179 383.267C409.419 388.847 416.439 390.637 422.559 392.697C441.559 399.097 457.279 412.437 475.329 421.057C478.069 422.367 481.929 423.307 483.659 420.817C484.256 419.755 484.534 418.543 484.459 417.327C484.669 405.407 479.909 394.027 477.309 382.397C473.709 366.257 474.239 349.527 474.309 332.997C474.627 286.094 471.431 239.233 464.749 192.807C463.609 184.897 462.269 176.727 457.849 170.067C452.019 161.297 441.849 156.607 432.239 152.357C414.899 144.687 397.689 136.097 380.009 129.257C365.009 123.467 366.609 135.487 366.599 147.527C366.689 182.197 379.469 215.237 379.979 249.847Z" fill="#B26F6F"/>
<path d="M305.979 146.207C299.979 148.487 293.979 150.967 288.819 154.837C283.659 158.707 279.879 163.547 276.099 168.517C270.392 176.044 264.972 183.784 259.839 191.737C256.419 197.037 253.109 202.477 251.059 208.437C248.569 215.687 248.059 223.437 247.899 231.117C247.219 272.517 258.009 313.727 254.679 355.007C252.889 377.207 247.179 400.527 255.799 421.067L327.709 403.117C343.329 399.217 359.899 394.767 370.709 382.877C385.079 367.127 385.119 343.317 383.129 322.087C378.659 274.147 368.129 226.727 367.389 178.577C367.189 166.297 376.069 127.577 356.389 127.577C349.689 127.577 342.619 133.737 336.549 136.067C326.579 139.997 316.049 142.417 305.979 146.207Z" fill="#891919"/>
<path d="M192.909 34.2972C186.112 44.9811 181.846 57.0763 180.435 69.66C179.024 82.2438 180.507 94.9835 184.769 106.907C187.679 114.907 191.769 122.307 195.919 129.707C213.189 160.837 230.699 192.297 254.919 218.407C251.019 210.927 255.559 201.987 259.989 194.807C274.869 170.694 289.745 146.584 304.619 122.477C310.619 112.707 316.789 102.677 319.169 91.4772C323.579 70.7472 314.019 48.6972 298.319 34.4772C269.409 8.21715 217.179 -3.18285 192.909 34.2972Z" fill="#891919"/>
<path d="M221.058 55.1872C219.774 57.1884 219.02 59.4839 218.868 61.8572C217.368 73.7572 220.028 86.4572 227.628 95.7472C235.228 105.037 248.078 110.237 259.688 107.257C282.458 101.417 282.188 76.1772 268.748 61.3772C260.418 52.1972 229.758 43.4572 221.058 55.1872Z" fill="#FFF9EF"/>
<path d="M206.308 416.817C206.238 423.887 204.138 430.937 201.678 437.607C200.052 442.014 198.272 446.347 196.338 450.607H162.898C159.735 450.617 156.605 451.264 153.698 452.512C150.791 453.759 148.165 455.581 145.978 457.867C141.492 462.569 138.99 468.818 138.99 475.317C138.99 481.816 141.492 488.065 145.978 492.767C148.168 495.048 150.794 496.864 153.702 498.106C156.609 499.348 159.737 499.992 162.898 499.997H338.068C341.228 499.99 344.354 499.346 347.26 498.104C350.165 496.862 352.79 495.047 354.978 492.767C359.464 488.065 361.967 481.816 361.967 475.317C361.967 468.818 359.464 462.569 354.978 457.867C352.793 455.59 350.171 453.776 347.269 452.534C344.367 451.292 341.245 450.647 338.088 450.637H302.628C300.688 446.37 298.905 442.037 297.278 437.637C294.708 430.637 292.498 423.237 292.668 415.837" fill="#891919"/>
<path d="M140.979 131.997C139.979 147.147 138.979 161.557 138.079 175.997C134.172 238.364 130.292 300.74 126.439 363.127C125.719 374.767 124.439 372.127 134.679 375.907C168.579 388.367 202.539 400.637 236.479 412.967C238.089 413.557 239.739 414.067 242.149 414.867C242.339 411.917 242.639 409.427 242.639 406.937C242.639 375.15 242.639 343.36 242.639 311.567C242.639 280.857 240.529 249.567 242.299 218.987C242.28 218.378 242.421 217.774 242.709 217.237C243.449 216.067 245.149 216.157 246.529 216.237C250.077 216.552 253.653 216.213 257.079 215.237C258.719 218.617 258.379 222.577 258.079 226.337C257.299 237.597 258.269 248.747 258.269 259.987C258.269 309.407 258.252 358.82 258.219 408.227V414.997C260.729 414.207 262.469 413.737 264.219 413.117C298.979 400.497 333.699 387.747 368.539 375.327C373.479 373.567 375.129 371.457 374.779 366.057C370.159 295.51 365.692 224.95 361.379 154.377C360.939 147.247 360.469 140.127 359.969 132.167C348.809 136.807 337.749 141.677 326.379 145.797C320.239 147.997 314.039 149.997 307.979 152.397C305.559 153.397 293.029 157.397 292.489 159.987C293.839 153.417 295.599 146.507 300.389 141.817C303.739 138.527 308.219 136.697 312.579 134.947C329.959 127.947 346.839 120.007 364.419 113.557C366.679 112.727 370.109 113.367 372.419 114.557C402.509 130.077 432.539 145.707 462.419 161.687C464.939 163.037 467.289 166.957 467.589 169.907C471.339 206.907 474.719 243.907 478.179 280.907C482.439 326.607 486.702 372.31 490.969 418.017C491.196 419.375 491.531 420.712 491.969 422.017V428.297C487.509 434.997 484.889 435.737 477.589 432.227C447.979 417.997 418.399 403.827 388.979 389.407C387.104 388.375 385.022 387.779 382.886 387.661C380.75 387.543 378.615 387.908 376.639 388.727C337.339 403.257 297.979 417.497 258.709 431.997C253.362 434.121 247.402 434.103 242.069 431.947C202.649 417.327 163.069 403.007 123.689 388.437C121.943 387.72 120.059 387.403 118.174 387.508C116.29 387.614 114.453 388.14 112.799 389.047C96.3919 397.047 79.9652 405 63.5186 412.907C55.1586 416.967 46.7886 420.997 38.4086 424.997C30.7086 428.657 23.2586 433.337 14.7586 434.687C12.7586 434.997 10.4486 435.057 9.09857 433.577C7.74857 432.097 7.96857 430.197 8.09857 428.387L11.7686 388.997C12.1086 385.377 12.6186 381.737 13.1886 378.077C14.5186 369.447 16.0986 360.747 16.0986 352.137C19.7719 313.004 23.3986 273.884 26.9786 234.777C28.9786 213.227 31.1686 191.687 33.1286 170.137C33.1958 168.228 33.7925 166.375 34.8521 164.786C35.9116 163.197 37.3923 161.933 39.1286 161.137C68.3886 145.917 97.6052 130.62 126.779 115.247C131.349 112.837 135.539 112.577 140.239 114.667C155.699 121.557 171.559 127.427 186.659 135.077C191.139 137.337 195.569 139.817 199.209 143.257C205.319 149.017 208.759 156.977 212.029 164.707C211.219 162.787 200.219 158.627 197.899 157.477C191.692 154.404 185.422 151.437 179.089 148.577C166.499 142.827 153.729 137.437 140.979 131.997ZM26.2786 412.777C28.2786 412.027 29.6186 411.667 30.8186 411.097C55.6686 399.177 80.4686 387.157 105.389 375.387C108.889 373.737 110.219 371.687 110.389 367.927C111.719 345.287 113.299 322.657 114.709 300.007C118.042 246.367 121.352 192.717 124.639 139.057C124.719 137.777 124.639 136.477 124.639 134.947C123.934 135.018 123.237 135.155 122.559 135.357C98.9786 147.697 75.2586 159.997 51.6886 172.527C50.1186 173.357 48.6886 175.847 48.5286 177.707C46.7186 193.827 45.1386 209.977 43.6186 226.137C38.7586 278.044 33.9286 329.997 29.1286 381.997C28.1986 391.997 27.2686 402.057 26.2786 412.777ZM376.279 134.637C376.279 136.777 376.199 138.287 376.279 139.797C379.212 187.524 382.159 235.254 385.119 282.987C386.879 311.207 388.675 339.424 390.509 367.637C390.699 370.567 390.749 373.157 394.299 374.827C420.029 386.947 445.619 399.337 471.299 411.617C472.39 411.991 473.51 412.272 474.649 412.457C473.289 398.027 471.979 384.167 470.649 370.297C467.629 338.157 464.612 306.014 461.599 273.867C458.599 242.077 455.549 210.287 452.719 178.477C452.389 174.807 450.819 173.047 447.719 171.477C425.409 159.997 403.149 148.297 380.869 136.697C379.539 135.997 378.139 135.467 376.269 134.637H376.279Z" fill="#891919"/>
<path d="M250.588 120.317C242.671 120.347 234.923 118.026 228.325 113.649C221.727 109.272 216.577 103.035 213.527 95.7287C210.476 88.4223 209.662 80.375 211.189 72.6059C212.715 64.8368 216.513 57.6955 222.101 52.0863C227.689 46.4772 234.816 42.6527 242.58 41.0971C250.343 39.5415 258.393 40.3248 265.711 43.3478C273.029 46.3709 279.285 51.4977 283.687 58.0788C288.089 64.66 290.438 72.3995 290.438 80.3172C290.454 90.9047 286.266 101.065 278.793 108.566C271.321 116.067 261.176 120.293 250.588 120.317ZM250.288 104.647C255.093 104.671 259.796 103.27 263.805 100.621C267.813 97.9725 270.946 94.1951 272.808 89.7663C274.671 85.3376 275.178 80.4562 274.267 75.739C273.356 71.0219 271.067 66.6806 267.689 63.2639C264.312 59.8473 259.997 57.5084 255.291 56.5431C250.584 55.5777 245.698 56.0291 241.248 57.8402C236.798 59.6513 232.984 62.7408 230.29 66.7183C227.595 70.6959 226.14 75.3829 226.108 80.1872C226.116 86.6238 228.657 92.7987 233.182 97.3762C237.707 101.954 243.852 104.566 250.288 104.647Z" fill="#891919"/>
<path d="M330.628 77.6371C330.75 91.17 327.059 104.464 319.979 115.997L258.598 218.997C253.598 227.307 247.258 227.317 242.308 218.997C221.922 184.824 201.545 150.654 181.178 116.487C175.806 107.556 172.328 97.6152 170.961 87.2827C169.593 76.9503 170.366 66.447 173.23 56.4258C176.094 46.4046 180.989 37.0796 187.61 29.0304C194.232 20.9813 202.438 14.3801 211.719 9.63714C250.979 -10.7829 297.978 2.18714 320.508 39.6571C326.918 50.3471 330.688 64.4771 330.628 77.6371ZM250.238 200.887C250.978 200.267 251.488 200.007 251.738 199.597C270.738 167.677 290.038 135.927 308.598 103.747C316.548 89.9671 317.299 74.7471 312.109 59.6671C303.579 34.9771 285.878 20.3571 260.248 16.6671C233.418 12.8271 211.048 22.0471 195.948 44.8171C181.518 66.5871 182.728 89.0371 196.308 111.287C213.648 139.727 230.528 168.447 247.628 197.037C248.398 198.347 249.318 199.547 250.238 200.887Z" fill="#FFF9EF"/>
</svg>
