<svg xmlns="http://www.w3.org/2000/svg" viewBox="0 0 759.94 937"><defs><style>.cls-1,.cls-4{opacity:0.17;}.cls-2{fill:#cc80df;}.cls-3{fill:#a135aa;}.cls-5{fill:#fcc766;}.cls-10,.cls-11,.cls-12,.cls-6,.cls-7,.cls-8,.cls-9{fill:none;}.cls-10,.cls-6,.cls-7,.cls-9{stroke:#fff;}.cls-6{stroke-linejoin:round;}.cls-6,.cls-7,.cls-8{stroke-width:6.91px;}.cls-10,.cls-11,.cls-7,.cls-8{stroke-linecap:round;}.cls-11,.cls-12,.cls-8{stroke:#fcc766;}.cls-10,.cls-9{stroke-width:3.45px;}.cls-11,.cls-12{stroke-width:1.73px;}.cls-12{stroke-linecap:square;}</style></defs><g id="Camada_2" data-name="Camada 2"><g id="sombra_trofeu" data-name="sombra trofeu"><g class="cls-1"><path d="M214.5,921.13c-15.65,0-28.38-13.07-28.38-29.13s12.73-29.13,28.38-29.13h61.95a15.86,15.86,0,0,0,14.41-9.24c3.78-8.2,7.26-16.55,10.35-24.83,4.38-11.7,9.42-27.2,9.57-43.3a15.88,15.88,0,0,0-13.52-15.84,344.22,344.22,0,0,1-104.15-32.84c-35-17.59-100.18-50.35-138.46-126.91C14.59,529.76,29.7,452.22,35.38,423,49.6,350.1,86.15,296.37,117.74,261.74A124.06,124.06,0,0,0,135,316.18c19.68,32.7,48.68,47.07,64.21,52.73a15.87,15.87,0,0,0,20.69-19.26c-17.5-61.37-15.81-109.2,5-142.17,16.88-26.7,44.23-41.82,70.69-56.45,31-17.11,63-34.8,68.27-70.71a72.78,72.78,0,0,0-3.16-33.6c39.7,10.2,102,35.8,147.62,99.51C561,219.74,559,298.74,555.66,329.29a15.86,15.86,0,0,0,26.48,13.42c16.44-15,45.45-47.74,55-97.72a174,174,0,0,0,2.93-25.1A663.66,663.66,0,0,1,685.55,288c29.5,50.71,49,84.22,56,134.23,6.71,47.77.11,96.48-19.62,144.79-34.68,84.87-99.88,127.51-127.73,145.72C551.75,740.49,504,759,452.27,767.86a15.85,15.85,0,0,0-13.19,15.33c-.33,16.81,4.64,32.49,9.55,45.62,3.09,8.26,6.57,16.62,10.35,24.82a15.86,15.86,0,0,0,14.41,9.24H539c15.65,0,28.38,13.07,28.38,29.13S554.64,921.13,539,921.13Z"/><path d="M380.53,69.42c4.57,1.66,9.29,3.51,14.14,5.6,41.42,17.79,75.34,44.86,100.81,80.45,49.44,69.06,47.52,143.37,44.41,172.11a31.73,31.73,0,0,0,53,26.83c16.45-15.05,44.46-46.35,57-93.63q11.55,17.22,22,35.18c28.56,49.09,47.43,81.53,54,128.46a252,252,0,0,1-3.1,86.47A276.79,276.79,0,0,1,707.25,561c-32.8,80.3-95.11,121-121.72,138.44C544.9,726,499.17,743.77,449.61,752.22a31.74,31.74,0,0,0-26.4,30.66c-.38,19.59,5.44,37.8,10.56,51.48,3.23,8.64,6.86,17.35,10.79,25.9a31.73,31.73,0,0,0,28.83,18.47H539c6.9,0,12.51,5.95,12.51,13.27s-5.61,13.27-12.51,13.27H214.5c-6.9,0-12.51-5.95-12.51-13.27s5.61-13.27,12.51-13.27h61.95a31.73,31.73,0,0,0,28.83-18.47c3.93-8.55,7.56-17.26,10.79-25.9,4.84-12.92,10.4-30.14,10.58-48.71A31.74,31.74,0,0,0,299.59,754a324.21,324.21,0,0,1-99.35-31.32c-33.37-16.77-95.48-48-131.4-119.84C31.19,527.5,45.55,453.81,51,426.07c10.51-53.95,33.89-96.89,57.93-128.85a137.4,137.4,0,0,0,12.55,27.15c22.2,36.87,54.87,53.07,72.37,59.45a31.73,31.73,0,0,0,41.37-38.52C219,288.46,220.05,244.94,238.38,216c14.7-23.26,40.24-37.38,64.94-51,32.73-18.09,69.83-38.6,76.3-82.27a85,85,0,0,0,.91-13.23M331.51,25c8.15,11.2,20,31,16.72,53-8,53.81-96.75,57.82-136.68,121-16.25,25.71-30.76,71.27-6.88,155-8.88-3.23-37.31-14.87-56-46-23.76-39.46-13.69-79.92-11.8-87-25.42,22-95.47,88.44-117,199-6.53,33.49-21,113.73,20.65,197C81.09,698.28,150.52,733.18,186,751a357.91,357.91,0,0,0,108.93,34.35c-.12,12.88-4,25.74-8.57,37.9q-4.5,12.06-9.9,23.75H214.5c-24.44,0-44.25,20.15-44.25,45s19.81,45,44.25,45H539c24.43,0,44.24-20.15,44.24-45S563.42,847,539,847h-65.6q-5.38-11.68-9.9-23.75c-4.77-12.75-8.82-26.25-8.55-39.75,43.66-7.45,95.79-23.38,148-57.5,32.43-21.21,98.08-65.75,133.73-153,7.83-19.18,31.14-78.29,20.64-153-7.46-53.09-28.51-89.28-58-140a675.94,675.94,0,0,0-80.63-111,162.26,162.26,0,0,1,3,73c-9.39,49-39.09,78.88-50.15,89,2.31-21.25,9.6-110.54-50.14-194C452.73,41.23,348.85,27.07,331.51,25Z"/><path d="M214.5,936.5c-24.12,0-43.75-20-43.75-44.5s19.63-44.5,43.75-44.5h62.27l.13-.29c3.62-7.86,7-15.86,9.92-23.79,4.18-11.17,8.47-24.44,8.6-38.06v-.44l-.43-.06a359.94,359.94,0,0,1-108.78-34.31c-10.66-5.35-22-11.19-33-17.6a162.78,162.78,0,0,1-15.89-11.1,156.4,156.4,0,0,0-15.93-11.09L572.6,288c-.9,4.7-.67,9.11-.43,13.75.13,2.59.27,5.26.2,8,0,.71,0,2,.07,3.55.16,5.07.51,15.64-1.34,17.32l.67.74c15-13.76,41.56-43.65,50.3-89.28a163.22,163.22,0,0,0-2.42-71.2,677.33,677.33,0,0,1,79.18,109.36c29.32,50.41,50.5,86.83,57.95,139.82,7.09,50.49.16,101.88-20.62,152.74-36.48,89.3-104.49,133.78-133.54,152.77-44.23,28.93-93.95,48.25-147.77,57.42l-.4.07v.42c-.28,14.22,4.18,28.17,8.58,39.93,3,7.92,6.3,15.92,9.92,23.79l.13.29H539c24.12,0,43.74,20,43.74,44.5S563.11,936.5,539,936.5Z"/><path d="M620.64,172.76A677.78,677.78,0,0,1,698.4,280.5c29.29,50.36,50.45,86.74,57.88,139.64a282.7,282.7,0,0,1-3.44,97,310.48,310.48,0,0,1-17.14,55.5,302.71,302.71,0,0,1-67.85,100.93c-26,25.81-51.71,42.6-65.5,51.61-44.18,28.89-93.83,48.19-147.58,57.35l-.82.14v.83c-.28,14.31,4.2,28.31,8.61,40.12,3,7.93,6.31,15.95,9.93,23.82l.27.58H539c23.84,0,43.24,19.74,43.24,44s-19.4,44-43.24,44H214.5c-23.85,0-43.25-19.74-43.25-44s19.4-44,43.25-44h62.59l.27-.58c3.62-7.87,7-15.89,9.93-23.82,4.19-11.22,8.5-24.54,8.63-38.24v-.87l-.86-.12a359.36,359.36,0,0,1-108.62-34.26c-10.65-5.35-22-11.19-32.94-17.59a163.16,163.16,0,0,1-15.85-11.07,162.19,162.19,0,0,0-15.39-10.79l449.6-421.3a62.05,62.05,0,0,0-.19,12.41c.13,2.58.27,5.24.2,8,0,.74,0,2,.07,3.58.14,4.22.5,15.41-1.18,16.94l.67.74.68.74c15.08-13.8,41.68-43.78,50.45-89.55a163.6,163.6,0,0,0-1.92-69.43m-2-3.76a162.26,162.26,0,0,1,3,73c-9.39,49-39.09,78.88-50.15,89,2.57-2.33,1.35-17.92,1.44-21.23.2-8.13-1.37-15.31.55-23.24L120.59,710.85c11.2,6.34,20.95,15.83,32.4,22.53,10.77,6.31,21.86,12,33,17.62a357.91,357.91,0,0,0,108.93,34.35c-.12,12.88-4,25.74-8.57,37.9q-4.5,12.06-9.9,23.75H214.5c-24.44,0-44.25,20.15-44.25,45s19.81,45,44.25,45H539c24.43,0,44.24-20.15,44.24-45S563.42,847,539,847h-65.6q-5.38-11.68-9.9-23.75c-4.77-12.75-8.82-26.25-8.55-39.75,43.66-7.45,95.79-23.38,148-57.5,32.43-21.21,98.08-65.75,133.73-153,7.83-19.18,31.14-78.29,20.64-153-7.46-53.09-28.51-89.28-58-140a675.94,675.94,0,0,0-80.63-111Z"/></g></g><g id="trofeu"><path class="cls-2" d="M202.5,896.13c-15.65,0-28.38-13.07-28.38-29.13s12.73-29.13,28.38-29.13h61.95a15.86,15.86,0,0,0,14.41-9.24c3.78-8.2,7.26-16.55,10.35-24.83,4.38-11.7,9.42-27.2,9.57-43.3a15.88,15.88,0,0,0-13.52-15.84,344.22,344.22,0,0,1-104.15-32.84c-35-17.59-100.18-50.35-138.46-126.91C2.59,504.76,17.7,427.22,23.38,398,37.6,325.1,74.15,271.37,105.74,236.74A124.06,124.06,0,0,0,123,291.18c19.68,32.7,48.68,47.07,64.21,52.73a15.87,15.87,0,0,0,20.69-19.26c-17.5-61.37-15.81-109.2,5-142.17,16.88-26.7,44.23-41.82,70.69-56.45,31-17.11,63-34.8,68.27-70.71a72.78,72.78,0,0,0-3.16-33.6c39.7,10.2,102,35.8,147.62,99.51C549,194.74,547,273.74,543.66,304.29a15.86,15.86,0,0,0,26.48,13.42c16.44-15,45.45-47.74,55-97.72a174,174,0,0,0,2.93-25.1A663.66,663.66,0,0,1,673.55,263c29.5,50.71,49,84.22,56,134.23,6.71,47.77.11,96.48-19.62,144.79-34.68,84.87-99.88,127.51-127.73,145.72C539.75,715.49,492,734,440.27,742.86a15.85,15.85,0,0,0-13.19,15.33c-.33,16.81,4.64,32.49,9.55,45.62,3.09,8.26,6.57,16.62,10.35,24.82a15.86,15.86,0,0,0,14.41,9.24H527c15.65,0,28.38,13.07,28.38,29.13S542.64,896.13,527,896.13Z"/><path class="cls-3" d="M368.53,44.42c4.57,1.66,9.29,3.51,14.14,5.6C424.09,67.81,458,94.88,483.48,130.47c49.44,69.06,47.52,143.37,44.41,172.11a31.73,31.73,0,0,0,53,26.83c16.45-15.05,44.46-46.35,57-93.63q11.55,17.22,22,35.18c28.56,49.09,47.43,81.53,54,128.46a252,252,0,0,1-3.1,86.47A276.79,276.79,0,0,1,695.25,536c-32.8,80.3-95.11,121-121.72,138.44C532.9,701,487.17,718.77,437.61,727.22a31.74,31.74,0,0,0-26.4,30.66c-.38,19.59,5.44,37.8,10.56,51.48,3.23,8.64,6.86,17.35,10.79,25.9a31.73,31.73,0,0,0,28.83,18.47H527c6.9,0,12.51,5.95,12.51,13.27s-5.61,13.27-12.51,13.27H202.5c-6.9,0-12.51-5.95-12.51-13.27s5.61-13.27,12.51-13.27h61.95a31.73,31.73,0,0,0,28.83-18.47c3.93-8.55,7.56-17.26,10.79-25.9,4.84-12.92,10.4-30.14,10.58-48.71A31.74,31.74,0,0,0,287.59,729a324.21,324.21,0,0,1-99.35-31.32c-33.37-16.77-95.48-48-131.4-119.84C19.19,502.5,33.55,428.81,39,401.07c10.51-53.95,33.89-96.89,57.93-128.85a137.4,137.4,0,0,0,12.55,27.15c22.2,36.87,54.87,53.07,72.37,59.45a31.73,31.73,0,0,0,41.37-38.52C207,263.46,208.05,219.94,226.38,191c14.7-23.26,40.24-37.38,64.94-51,32.73-18.09,69.83-38.6,76.3-82.27a85,85,0,0,0,.91-13.23M319.51,0c8.15,11.2,20,31,16.72,53-8,53.81-96.75,57.82-136.68,121-16.25,25.71-30.76,71.27-6.88,155-8.88-3.23-37.31-14.87-56-46-23.76-39.46-13.69-79.92-11.8-87-25.42,22-95.47,88.44-117,199-6.53,33.49-21,113.73,20.65,197C69.09,673.28,138.52,708.18,174,726a357.91,357.91,0,0,0,108.93,34.35c-.12,12.88-4,25.74-8.57,37.9q-4.5,12.06-9.9,23.75H202.5c-24.44,0-44.25,20.15-44.25,45s19.81,45,44.25,45H527c24.43,0,44.24-20.15,44.24-45S551.42,822,527,822h-65.6q-5.38-11.68-9.9-23.75c-4.77-12.75-8.82-26.25-8.55-39.75,43.66-7.45,95.79-23.38,148-57.5,32.43-21.21,98.08-65.75,133.73-153,7.83-19.18,31.14-78.29,20.64-153-7.46-53.09-28.51-89.28-58-140a675.94,675.94,0,0,0-80.63-111,162.26,162.26,0,0,1,3,73c-9.39,49-39.09,78.88-50.15,89,2.31-21.25,9.6-110.54-50.14-194C440.73,16.23,336.85,2.07,319.51,0Z"/><path class="cls-3" d="M745.27,395c-7.46-53.09-28.51-89.28-58-140a675.94,675.94,0,0,0-80.63-111,162.26,162.26,0,0,1,3,73c-9.39,49-39.09,78.88-50.15,89,2.57-2.33,1.35-17.92,1.44-21.23.2-8.13-1.37-15.31.55-23.24L108.59,685.85c11.21,6.34,20.95,15.83,32.4,22.53,10.77,6.31,21.86,12,33,17.62a357.91,357.91,0,0,0,108.93,34.35c-.12,12.88-4,25.74-8.57,37.9q-4.5,12.06-9.9,23.75H202.5c-24.44,0-44.25,20.15-44.25,45s19.81,45,44.25,45H527c24.43,0,44.24-20.15,44.24-45S551.42,822,527,822h-65.6q-5.38-11.68-9.9-23.75c-4.77-12.75-8.82-26.25-8.55-39.75,43.66-7.45,95.79-23.38,148-57.5,32.43-21.21,98.08-65.75,133.73-153C732.46,528.82,755.77,469.71,745.27,395Z"/></g><g id="sombra"><rect class="cls-4" x="256.88" y="388.53" width="226.42" height="226.42" rx="11.18" transform="translate(463.19 -114.74) rotate(45)"/></g><g id="medalha"><rect class="cls-5" x="248.37" y="363.34" width="226.15" height="226.15" rx="11.17" transform="translate(442.74 -116.04) rotate(45)"/></g><g id="logo"><rect class="cls-6" x="305.74" y="420" width="114" height="114" rx="6.91"/><path class="cls-7" d="M305.74,444.18h114"/><path class="cls-8" d="M298.83,451.09H426.65"/><rect class="cls-9" x="319.55" y="511.55" width="10.36" height="10.36"/><path class="cls-10" d="M316.1,511.55l8.64,8.63,19-17.27"/><path class="cls-11" d="M326.46,515l17.28-15.55"/><path class="cls-11" d="M324.74,523.64l22.45-20.73"/><path class="cls-11" d="M326.46,525.36l-13.81-13.81"/><path class="cls-12" d="M324.74,516.73l-10.37-10.37"/><rect class="cls-9" x="319.55" y="487.36" width="10.36" height="10.36"/><path class="cls-10" d="M316.1,487.36l8.64,8.64,19-17.27"/><path class="cls-11" d="M326.46,490.82l17.28-15.55"/><path class="cls-11" d="M324.74,499.45l22.45-20.72"/><path class="cls-11" d="M326.46,501.18l-13.81-13.82"/><path class="cls-12" d="M324.74,492.55l-10.37-10.37"/><rect class="cls-9" x="319.55" y="463.18" width="10.36" height="10.36"/><path class="cls-10" d="M316.1,463.18l8.64,8.64,19-17.27"/><path class="cls-11" d="M326.46,466.64l17.28-15.55"/><path class="cls-11" d="M324.74,475.27l22.45-20.72"/><path class="cls-11" d="M326.46,477l-13.81-13.82"/><path class="cls-12" d="M324.74,468.36,314.37,458"/><path class="cls-7" d="M347.19,466.64h62.18"/><path class="cls-7" d="M347.19,492.55h62.18"/><path class="cls-7" d="M347.19,516.73h62.18"/></g></g></svg>