<svg xmlns="http://www.w3.org/2000/svg" viewBox="0 0 759.94 937"><defs><style>.cls-1,.cls-4{opacity:0.17;}.cls-2{fill:#6fa8cc;}.cls-3{fill:#2f82b7;}.cls-5{fill:#fcc766;}.cls-6,.cls-7{fill:none;stroke:#fff;stroke-linecap:round;}.cls-6{stroke-width:3.56px;}.cls-7{stroke-width:7.11px;}.cls-8{fill:#fff;}</style></defs><g id="Camada_2" data-name="Camada 2"><g id="sombra_trofeu" data-name="sombra trofeu"><g class="cls-1"><path d="M214.5,921.13c-15.65,0-28.38-13.07-28.38-29.13s12.73-29.13,28.38-29.13h61.95a15.86,15.86,0,0,0,14.41-9.24c3.78-8.2,7.26-16.55,10.35-24.83,4.38-11.7,9.42-27.2,9.57-43.3a15.88,15.88,0,0,0-13.52-15.84,344.22,344.22,0,0,1-104.15-32.84c-35-17.59-100.18-50.35-138.46-126.91C14.59,529.76,29.7,452.22,35.38,423,49.6,350.1,86.15,296.37,117.74,261.74A124.06,124.06,0,0,0,135,316.18c19.68,32.7,48.68,47.07,64.21,52.73a15.87,15.87,0,0,0,20.69-19.26c-17.5-61.37-15.81-109.2,5-142.17,16.88-26.7,44.23-41.82,70.69-56.45,31-17.11,63-34.8,68.27-70.71a72.78,72.78,0,0,0-3.16-33.6c39.7,10.2,102,35.8,147.62,99.51C561,219.74,559,298.74,555.66,329.29a15.86,15.86,0,0,0,26.48,13.42c16.44-15,45.45-47.74,55-97.72a174,174,0,0,0,2.93-25.1A663.66,663.66,0,0,1,685.55,288c29.5,50.71,49,84.22,56,134.23,6.71,47.77.11,96.48-19.62,144.79-34.68,84.87-99.88,127.51-127.73,145.72C551.75,740.49,504,759,452.27,767.86a15.85,15.85,0,0,0-13.19,15.33c-.33,16.81,4.64,32.49,9.55,45.62,3.09,8.26,6.57,16.62,10.35,24.82a15.86,15.86,0,0,0,14.41,9.24H539c15.65,0,28.38,13.07,28.38,29.13S554.64,921.13,539,921.13Z"/><path d="M380.53,69.42c4.57,1.66,9.29,3.51,14.14,5.6,41.42,17.79,75.34,44.86,100.81,80.45,49.44,69.06,47.52,143.37,44.41,172.11a31.73,31.73,0,0,0,53,26.83c16.45-15.05,44.46-46.35,57-93.63q11.55,17.22,22,35.18c28.56,49.09,47.43,81.53,54,128.46a252,252,0,0,1-3.1,86.47A276.79,276.79,0,0,1,707.25,561c-32.8,80.3-95.11,121-121.72,138.44C544.9,726,499.17,743.77,449.61,752.22a31.74,31.74,0,0,0-26.4,30.66c-.38,19.59,5.44,37.8,10.56,51.48,3.23,8.64,6.86,17.35,10.79,25.9a31.73,31.73,0,0,0,28.83,18.47H539c6.9,0,12.51,5.95,12.51,13.27s-5.61,13.27-12.51,13.27H214.5c-6.9,0-12.51-5.95-12.51-13.27s5.61-13.27,12.51-13.27h61.95a31.73,31.73,0,0,0,28.83-18.47c3.93-8.55,7.56-17.26,10.79-25.9,4.84-12.92,10.4-30.14,10.58-48.71A31.74,31.74,0,0,0,299.59,754a324.21,324.21,0,0,1-99.35-31.32c-33.37-16.77-95.48-48-131.4-119.84C31.19,527.5,45.55,453.81,51,426.07c10.51-53.95,33.89-96.89,57.93-128.85a137.4,137.4,0,0,0,12.55,27.15c22.2,36.87,54.87,53.07,72.37,59.45a31.73,31.73,0,0,0,41.37-38.52C219,288.46,220.05,244.94,238.38,216c14.7-23.26,40.24-37.38,64.94-51,32.73-18.09,69.83-38.6,76.3-82.27a85,85,0,0,0,.91-13.23M331.51,25c8.15,11.2,20,31,16.72,53-8,53.81-96.75,57.82-136.68,121-16.25,25.71-30.76,71.27-6.88,155-8.88-3.23-37.31-14.87-56-46-23.76-39.46-13.69-79.92-11.8-87-25.42,22-95.47,88.44-117,199-6.53,33.49-21,113.73,20.65,197C81.09,698.28,150.52,733.18,186,751a357.91,357.91,0,0,0,108.93,34.35c-.12,12.88-4,25.74-8.57,37.9q-4.5,12.06-9.9,23.75H214.5c-24.44,0-44.25,20.15-44.25,45s19.81,45,44.25,45H539c24.43,0,44.24-20.15,44.24-45S563.42,847,539,847h-65.6q-5.38-11.68-9.9-23.75c-4.77-12.75-8.82-26.25-8.55-39.75,43.66-7.45,95.79-23.38,148-57.5,32.43-21.21,98.08-65.75,133.73-153,7.83-19.18,31.14-78.29,20.64-153-7.46-53.09-28.51-89.28-58-140a675.94,675.94,0,0,0-80.63-111,162.26,162.26,0,0,1,3,73c-9.39,49-39.09,78.88-50.15,89,2.31-21.25,9.6-110.54-50.14-194C452.73,41.23,348.85,27.07,331.51,25Z"/><path d="M214.5,936.5c-24.12,0-43.75-20-43.75-44.5s19.63-44.5,43.75-44.5h62.27l.13-.29c3.62-7.86,7-15.86,9.92-23.79,4.18-11.17,8.47-24.44,8.6-38.06v-.44l-.43-.06a359.94,359.94,0,0,1-108.78-34.31c-10.66-5.35-22-11.19-33-17.6a162.78,162.78,0,0,1-15.89-11.1,156.4,156.4,0,0,0-15.93-11.09L572.6,288c-.9,4.7-.67,9.11-.43,13.75.13,2.59.27,5.26.2,8,0,.71,0,2,.07,3.55.16,5.07.51,15.64-1.34,17.32l.67.74c15-13.76,41.56-43.65,50.3-89.28a163.22,163.22,0,0,0-2.42-71.2,677.33,677.33,0,0,1,79.18,109.36c29.32,50.41,50.5,86.83,57.95,139.82,7.09,50.49.16,101.88-20.62,152.74-36.48,89.3-104.49,133.78-133.54,152.77-44.23,28.93-93.95,48.25-147.77,57.42l-.4.07v.42c-.28,14.22,4.18,28.17,8.58,39.93,3,7.92,6.3,15.92,9.92,23.79l.13.29H539c24.12,0,43.74,20,43.74,44.5S563.11,936.5,539,936.5Z"/><path d="M620.64,172.76A677.78,677.78,0,0,1,698.4,280.5c29.29,50.36,50.45,86.74,57.88,139.64a282.7,282.7,0,0,1-3.44,97,310.48,310.48,0,0,1-17.14,55.5,302.71,302.71,0,0,1-67.85,100.93c-26,25.81-51.71,42.6-65.5,51.61-44.18,28.89-93.83,48.19-147.58,57.35l-.82.14v.83c-.28,14.31,4.2,28.31,8.61,40.12,3,7.93,6.31,15.95,9.93,23.82l.27.58H539c23.84,0,43.24,19.74,43.24,44s-19.4,44-43.24,44H214.5c-23.85,0-43.25-19.74-43.25-44s19.4-44,43.25-44h62.59l.27-.58c3.62-7.87,7-15.89,9.93-23.82,4.19-11.22,8.5-24.54,8.63-38.24v-.87l-.86-.12a359.36,359.36,0,0,1-108.62-34.26c-10.65-5.35-22-11.19-32.94-17.59a163.16,163.16,0,0,1-15.85-11.07,162.19,162.19,0,0,0-15.39-10.79l449.6-421.3a62.05,62.05,0,0,0-.19,12.41c.13,2.58.27,5.24.2,8,0,.74,0,2,.07,3.58.14,4.22.5,15.41-1.18,16.94l.67.74.68.74c15.08-13.8,41.68-43.78,50.45-89.55a163.6,163.6,0,0,0-1.92-69.43m-2-3.76a162.26,162.26,0,0,1,3,73c-9.39,49-39.09,78.88-50.15,89,2.57-2.33,1.35-17.92,1.44-21.23.2-8.13-1.37-15.31.55-23.24L120.59,710.85c11.2,6.34,20.95,15.83,32.4,22.53,10.77,6.31,21.86,12,33,17.62a357.91,357.91,0,0,0,108.93,34.35c-.12,12.88-4,25.74-8.57,37.9q-4.5,12.06-9.9,23.75H214.5c-24.44,0-44.25,20.15-44.25,45s19.81,45,44.25,45H539c24.43,0,44.24-20.15,44.24-45S563.42,847,539,847h-65.6q-5.38-11.68-9.9-23.75c-4.77-12.75-8.82-26.25-8.55-39.75,43.66-7.45,95.79-23.38,148-57.5,32.43-21.21,98.08-65.75,133.73-153,7.83-19.18,31.14-78.29,20.64-153-7.46-53.09-28.51-89.28-58-140a675.94,675.94,0,0,0-80.63-111Z"/></g></g><g id="trofeu"><path class="cls-2" d="M202.5,896.13c-15.65,0-28.38-13.07-28.38-29.13s12.73-29.13,28.38-29.13h61.95a15.86,15.86,0,0,0,14.41-9.24c3.78-8.2,7.26-16.55,10.35-24.83,4.38-11.7,9.42-27.2,9.57-43.3a15.88,15.88,0,0,0-13.52-15.84,344.22,344.22,0,0,1-104.15-32.84c-35-17.59-100.18-50.35-138.46-126.91C2.59,504.76,17.7,427.22,23.38,398,37.6,325.1,74.15,271.37,105.74,236.74A124.06,124.06,0,0,0,123,291.18c19.68,32.7,48.68,47.07,64.21,52.73a15.87,15.87,0,0,0,20.69-19.26c-17.5-61.37-15.81-109.2,5-142.17,16.88-26.7,44.23-41.82,70.69-56.45,31-17.11,63-34.8,68.27-70.71a72.78,72.78,0,0,0-3.16-33.6c39.7,10.2,102,35.8,147.62,99.51C549,194.74,547,273.74,543.66,304.29a15.86,15.86,0,0,0,26.48,13.42c16.44-15,45.45-47.74,55-97.72a174,174,0,0,0,2.93-25.1A663.66,663.66,0,0,1,673.55,263c29.5,50.71,49,84.22,56,134.23,6.71,47.77.11,96.48-19.62,144.79-34.68,84.87-99.88,127.51-127.73,145.72C539.75,715.49,492,734,440.27,742.86a15.85,15.85,0,0,0-13.19,15.33c-.33,16.81,4.64,32.49,9.55,45.62,3.09,8.26,6.57,16.62,10.35,24.82a15.86,15.86,0,0,0,14.41,9.24H527c15.65,0,28.38,13.07,28.38,29.13S542.64,896.13,527,896.13Z"/><path class="cls-3" d="M368.53,44.42c4.57,1.66,9.29,3.51,14.14,5.6C424.09,67.81,458,94.88,483.48,130.47c49.44,69.06,47.52,143.37,44.41,172.11a31.73,31.73,0,0,0,53,26.83c16.45-15.05,44.46-46.35,57-93.63q11.55,17.22,22,35.18c28.56,49.09,47.43,81.53,54,128.46a252,252,0,0,1-3.1,86.47A276.79,276.79,0,0,1,695.25,536c-32.8,80.3-95.11,121-121.72,138.44C532.9,701,487.17,718.77,437.61,727.22a31.74,31.74,0,0,0-26.4,30.66c-.38,19.59,5.44,37.8,10.56,51.48,3.23,8.64,6.86,17.35,10.79,25.9a31.73,31.73,0,0,0,28.83,18.47H527c6.9,0,12.51,5.95,12.51,13.27s-5.61,13.27-12.51,13.27H202.5c-6.9,0-12.51-5.95-12.51-13.27s5.61-13.27,12.51-13.27h61.95a31.73,31.73,0,0,0,28.83-18.47c3.93-8.55,7.56-17.26,10.79-25.9,4.84-12.92,10.4-30.14,10.58-48.71A31.74,31.74,0,0,0,287.59,729a324.21,324.21,0,0,1-99.35-31.32c-33.37-16.77-95.48-48-131.4-119.84C19.19,502.5,33.55,428.81,39,401.07c10.51-53.95,33.89-96.89,57.93-128.85a137.4,137.4,0,0,0,12.55,27.15c22.2,36.87,54.87,53.07,72.37,59.45a31.73,31.73,0,0,0,41.37-38.52C207,263.46,208.05,219.94,226.38,191c14.7-23.26,40.24-37.38,64.94-51,32.73-18.09,69.83-38.6,76.3-82.27a85,85,0,0,0,.91-13.23M319.51,0c8.15,11.2,20,31,16.72,53-8,53.81-96.75,57.82-136.68,121-16.25,25.71-30.76,71.27-6.88,155-8.88-3.23-37.31-14.87-56-46-23.76-39.46-13.69-79.92-11.8-87-25.42,22-95.47,88.44-117,199-6.53,33.49-21,113.73,20.65,197C69.09,673.28,138.52,708.18,174,726a357.91,357.91,0,0,0,108.93,34.35c-.12,12.88-4,25.74-8.57,37.9q-4.5,12.06-9.9,23.75H202.5c-24.44,0-44.25,20.15-44.25,45s19.81,45,44.25,45H527c24.43,0,44.24-20.15,44.24-45S551.42,822,527,822h-65.6q-5.38-11.68-9.9-23.75c-4.77-12.75-8.82-26.25-8.55-39.75,43.66-7.45,95.79-23.38,148-57.5,32.43-21.21,98.08-65.75,133.73-153,7.83-19.18,31.14-78.29,20.64-153-7.46-53.09-28.51-89.28-58-140a675.94,675.94,0,0,0-80.63-111,162.26,162.26,0,0,1,3,73c-9.39,49-39.09,78.88-50.15,89,2.31-21.25,9.6-110.54-50.14-194C440.73,16.23,336.85,2.07,319.51,0Z"/><path class="cls-3" d="M745.27,395c-7.46-53.09-28.51-89.28-58-140a675.94,675.94,0,0,0-80.63-111,162.26,162.26,0,0,1,3,73c-9.39,49-39.09,78.88-50.15,89,2.57-2.33,1.35-17.92,1.44-21.23.2-8.13-1.37-15.31.55-23.24L108.59,685.85c11.21,6.34,20.95,15.83,32.4,22.53,10.77,6.31,21.86,12,33,17.62a357.91,357.91,0,0,0,108.93,34.35c-.12,12.88-4,25.74-8.57,37.9q-4.5,12.06-9.9,23.75H202.5c-24.44,0-44.25,20.15-44.25,45s19.81,45,44.25,45H527c24.43,0,44.24-20.15,44.24-45S551.42,822,527,822h-65.6q-5.38-11.68-9.9-23.75c-4.77-12.75-8.82-26.25-8.55-39.75,43.66-7.45,95.79-23.38,148-57.5,32.43-21.21,98.08-65.75,133.73-153C732.46,528.82,755.77,469.71,745.27,395Z"/></g><g id="sombra"><rect class="cls-4" x="256.88" y="388.53" width="226.42" height="226.42" rx="11.18" transform="translate(463.19 -114.74) rotate(45)"/></g><g id="medalha"><rect class="cls-5" x="248.37" y="363.34" width="226.15" height="226.15" rx="11.17" transform="translate(442.74 -116.04) rotate(45)"/></g><g id="logo"><path class="cls-6" d="M375,440.69a2,2,0,0,0-1.19.17"/><path class="cls-7" d="M278.06,447a19.44,19.44,0,0,1,1.7,3,12.46,12.46,0,0,0,3.67,3.88c.67.37,1.8.46,2.33.94.29.26.56,1.09.2,1.34-1.12.78-2.95.4-4.24.4-.33,0-1.51-.22-1.16.41.17.3.56.86,1,.77.79-.17,1-2.94,1.11-.86a5.47,5.47,0,0,0,1,3.16c.41.5,1.25.29,1.83.29,1.36,0,2.42-.79,3.69-.79h5.8c1.23,0,2.13-.79,3.39-.79.26,0,3.35.43,3.35.09s-1-1.11-1.13-1.33a17.05,17.05,0,0,1-1.59-4.33,19.79,19.79,0,0,0-1.92-5.05,2.53,2.53,0,0,0-2.69-1.5c-2.26,0-4.46.32-6.71.39-1.14,0-2.31.28-3.43.39-.2,0-1.45-.13-1.35.31s2,1.29,2.45,1.47c1.24.49,2.59.89,3.86,1.3a3.84,3.84,0,0,1,1.71.72,4.27,4.27,0,0,0,3.26,1.77c.86,0,1.08,1.29.61,1.95-.32.43-1.57.35-2,.39a31.8,31.8,0,0,1-3.24.05c-.89,0-1.15-.1-1.08-1s1.93-1,2.58-1.15"/><path class="cls-7" d="M351,429.3a3.73,3.73,0,0,0,3.77,1.15c1.34-.22,2.61-.71,4-.9s2.58-.4,3.86-.63a7.27,7.27,0,0,1,1.32,0c.82,0,1.56-.38,2.36-.4a13.26,13.26,0,0,1,3.28.21c1.2.27.8,3-.13,3.46-2.25,1-5.68.1-8.11.1s-6.89-.42-8.19,2.19c-.86,1.72,1.59,2.38,2.82,2.38s2.76,0,4.13,0a22.86,22.86,0,0,0,3.42-.79,14.65,14.65,0,0,1,2.8-.4,12.87,12.87,0,0,0,3.72-.4,2.41,2.41,0,0,1,2.92.51c.47.57.94,2,.28,2.37s-2.36.4-3.16.5a29,29,0,0,1-3.73.2c-2.32,0-5-.29-7.19.48-1,.36-3.25.64-3.78,1.7"/><path class="cls-7" d="M343,461.49c-.25.62-2.15,7.28-1.14,7.63,2.28.8,5.25-.74,7-2a11.54,11.54,0,0,0,3.55-3.68c.21-.36.13-.16.11.2a7.72,7.72,0,0,1-1.19,2.84c-.45.88-1.38,2.48-.17.67a26.51,26.51,0,0,0,1.74-2.83,5.32,5.32,0,0,1,.82-1.52c.26-.25,1-.06,1.39-.19.71-.26,1.46-.33,2.18-.54,1.2-.35,2-1.47.76-2.34-2-1.38-2.93-3.78-4.53-5.48-.61-.64-1.17,0-1.59.63a21.14,21.14,0,0,0-2.93,4.61c-.82,2.36,4.55.66,3.92,0"/><path class="cls-7" d="M311.63,463.47c-.43,1.55,1.33,3.5,2,4.7a28.29,28.29,0,0,0,1.21,2.81c.58.77,1.19,2.34,2,2.82a3.51,3.51,0,0,0,2.48.59,4.7,4.7,0,0,0,2.1-1.49c.6-.73,1.41-1.21,2.08-1.88a14.74,14.74,0,0,1,3.38-2.18,18.28,18.28,0,0,0,3.87-3.48,4.27,4.27,0,0,0,1.29-2.28c0-1.45-1.5-2.75-2.28-3.88a23,23,0,0,1-2.28-4c-.54-1.2-.64-2.52-2.23-1.49a16.55,16.55,0,0,0-3.73,4.22c-.93,1.37-2.73,2.11-4.18,2.83-.17.09-1.76,1-1.45,1.08,2.07.38,4.45-.65,6.39-1.26.59-.18-.71,1.26-.76,1.32a26.54,26.54,0,0,0-3,3.59c-.73,1.2.3,1,1.28.8a22.77,22.77,0,0,0,6-2.21c.35-.19,1.29-1,.37-.38a18.13,18.13,0,0,0-4.12,3.43s-1.44,1.85-.94,1.85c1.15,0,2.24-1.29,2.81-2.14a8.55,8.55,0,0,0,1.22-5"/><path class="cls-7" d="M294.75,485.72a17.73,17.73,0,0,1,2,3c.36.67.51,1.47.91,2.1.58.92.63,1.93,1.12,2.87.29.54.7.93.95,1.49.66,1.48,1.11,1.76,2.58.94,2.14-1.19-1.16-4.63-1.78-5.81s-2.47-3.58-.7-4.37a3.65,3.65,0,0,1,1.69-.59c1.18.06,1.13,2.25,1.29,3,.26,1.12.07,2.49.7,3.53a14.17,14.17,0,0,0,2.18,2.82c.79.79,1.05,1.26,2.19,1.2s1.66-3.52,1.58-4.47c-.15-1.68-2-2.65-2-4.32,0-.41.25-2.05.91-1.34a5.89,5.89,0,0,1,1.32,3.17c.27,1.22.44,2.55.79,3.73a19,19,0,0,0,1.15,2.13c.43,1,2.61,1.42,3.08.39.58-1.26,0-3.51-.4-4.74a14.06,14.06,0,0,0-.59-1.91,16.28,16.28,0,0,1-.85-1.43c-.34-.92-.65-1.79-.94-2.73-.39-1.24.81.83.94,1.23a25.29,25.29,0,0,0,2.74,6.47c.45.68,1,1.22,1.47,1.92.29.45.91.5.91,1.1"/><path class="cls-6" d="M355.12,449c-1.66,0-3.31,1.23-4.77,2s-3.37,1.07-4.52,2.22a22.91,22.91,0,0,1-1.86,1.53,29.08,29.08,0,0,0-2.48,2.73,25.84,25.84,0,0,0-3.1,4.68,2.23,2.23,0,0,0-.47,1.53,4.56,4.56,0,0,0,.51,1.83c.27.68.44,1.44.76,2.09A26,26,0,0,1,340.6,471c.35,1,1,1.87,1.4,2.86.21.56.51,1.08.77,1.61a7.48,7.48,0,0,1,.6,1,1.5,1.5,0,0,0,.3.72c.07.09.21.54.22.53.38-1.35,1.09-2.63,1.56-3.94A3,3,0,0,1,347,472c.56-.25,1.82-1.07,1.34.27a2.49,2.49,0,0,1-1,1.27c-.07,0,.85-1.29,1-1.67a3.72,3.72,0,0,0-1.21-4.88,2.7,2.7,0,0,0-2.55-.25c-.45.28-1.86,1.14-.9,0,1.57-1.88,3.85-3,4.87-5.27a13.29,13.29,0,0,0-2.14,1.28c-1.3.85-1.19-.22-1-1.29a15,15,0,0,0,.42-3.13c0-.18,0-.26-.21-.27s-1,.43-1,.09,2.09-1.47,2.36-1.79a2.13,2.13,0,0,0,.56-1.28c0-.19.31-.53.31-.68s-1.58.39-1.66.43a7.49,7.49,0,0,0-3,3.23c-.53,1.07.58,1.72,1.4,1.95.4.11.87.1,1,.54a7.24,7.24,0,0,1-.25,3.94c-.62,2.19-1.47,5.05-.93,7.35.25,1.07.52,2,.72,3.12.06.3.23,2.12-.05,2.34s-.86.82-1.1.34"/><path class="cls-6" d="M342,425.19a12.26,12.26,0,0,0-2.21-6.3c-.53-.87-1.09-1.73-1.7-2.55a8.31,8.31,0,0,1-1.19-1.6c-.2-.52.22,1.14.54,1.6.69,1,1.39,2,2,3a17.13,17.13,0,0,0,1.92,3.11,9.46,9.46,0,0,1,1.66,3.88c.34,1.21-.64,1.33-1.43,1.69a16.17,16.17,0,0,0-3.41,1.88c-1.11.9-2,2-3.16,2.88a29.33,29.33,0,0,0-3.4,2.48,12.32,12.32,0,0,0-1.84,2.05c-.51.87-1.41,1.33-2.08,2-.26.27-.51.49-.78.76s-.63-.57-.89-.93a13.48,13.48,0,0,1-2.24-4.6,19.6,19.6,0,0,0-2.26-5.62,4.59,4.59,0,0,1-.47-2c0-1.25,1.19-2.39,2-3.23,1.2-1.19,2.57-2.09,3.84-3.17a5.5,5.5,0,0,1,1.09-.67c.49-.24.8-.86,1.17-1.24a23,23,0,0,0,2.26-2.94c.36-.53.58-1.18,1.19-1.49s-1.05.92-1.62,1.32c-1.38,1-3.51,1.82-4,3.58a15.69,15.69,0,0,0-1,3.4,13.12,13.12,0,0,0,.29,3.25c.35,1.93.73,4.28,0,6.16a11.32,11.32,0,0,0-.5,2.35c-.19,1.28,1-.35,1.39-.68,1.21-1.08,2.3-2.34,3.45-3.49.23-.24,2.36-1.71,1.85-.59-.71,1.59-2.63,2.8-3.77,4.08-.72.8-3,3-2.12,2.44,2-1.25,4.27-1.79,6.26-3a4.21,4.21,0,0,0,1.54-1.19c.09-.17.13-.76.06-.58a5,5,0,0,1-1,1.18,20.92,20.92,0,0,1-2.84,2.56c-.73.54-2.86,1.52-3.09,2.54a23.12,23.12,0,0,1-1.51,4c-.44,1-.32.26-.12-.3a7.93,7.93,0,0,1,1.32-2.12,20.89,20.89,0,0,1,4-3.75,20,20,0,0,0,4.09-4.08,12.41,12.41,0,0,1,2-2.18,21,21,0,0,0,2.37-1.82c.36-.37,1.82-1.92.86-2.4"/><path class="cls-7" d="M336.86,422.15a29.24,29.24,0,0,1-.69,3.19,6.77,6.77,0,0,0-.09,1.85c0,.16.44.4.3.48-1.56.83-4.1.4-5.76.45a17.29,17.29,0,0,0-4,.39c-.56.15-.58-.07-.37-.6,1.43-3.69,5-6.12,7-9.42.8-1.28,1.2-2.75,2-4,.26-.45.84-1.12.84-1.64"/><path class="cls-8" d="M387.73,461.31l33,71.11c4.83,2.44,6.73,1.92,8.16-3.55L366.72,404.42l-4.61,1.78L371,425.32l8.36,18Z"/><path class="cls-6" d="M362.11,406.2l25.62,55.11M362.11,406.2c-16.85.54-28.44-1.78-43.92,19.55-11.4,19.08-25,19.07-45.7,19.56l25.62,55.11c20.74-.49,34.82-.47,46.22-19.55,14.23-21.34,26.55-19,43.4-19.56M362.11,406.2l4.61-1.78m-4.61,1.78c-1.41-6.36,3.69-4.28,4.61-1.78m-4.61,1.78L371,425.32m16.73,36,33,71.11c4.83,2.44,6.73,1.92,8.16-3.55L366.72,404.42m21,56.89-8.37-18m-81.25-.58,25.61,55.12m-6-70.54,25.62,55.12m-62-18c20.74-.49,34.3-.47,45.7-19.55,15.47-21.34,27.07-19,43.92-19.56m0,0,8.36,18m-89.62,39.12c20.75-.49,34.3-.48,45.7-19.56,15.48-21.33,27.07-19,43.92-19.56m-41.81-34.48,25.61,55.11"/></g></g></svg>