<svg xmlns="http://www.w3.org/2000/svg" viewBox="0 0 717 890.72"><defs><style>.cls-1{fill:#fff2ba;}.cls-2{fill:#fff;}</style></defs><g id="Camada_2" data-name="Camada 2"><g id="lumi"><path class="cls-1" d="M341.15,880c-60.89,0-119.24-16-168.75-46.15C138.3,813,74.85,774.32,37.24,683.06c-39.56-96-24.71-188.47-19.12-223.28a451.29,451.29,0,0,1,11.69-52.56,439.91,439.91,0,0,1,16-45.91C51.27,347.94,57.5,334.73,64.29,322c6-11.16,12.5-22.14,19.4-32.64,5.86-8.92,12.1-17.66,18.54-26l1-1.33c.52,6.62,1.43,12.61,2.28,17.55,1.53,8.94,3.79,17.54,6,25.85.77,3,1.55,5.92,2.3,8.91.05.23.12.46.19.69,12.83,39.81,40.16,63.58,73.1,63.57h.11a12.86,12.86,0,0,0,12.06-17.25c-9.39-25.93-17.75-54.75-15.35-89.77,1.76-25.76,7.44-47.8,16.87-65.52,17-32.7,43.84-50.67,69.75-68C300.29,118.14,328.39,99.3,333,61.72c1.88-15.33-.91-31.59-8.31-48.5a96.82,96.82,0,0,1,11.68,2.46,179,179,0,0,1,31.95,12.19c3.08,1.57,6.13,3.5,9.36,5.55l3,1.9c13,8.1,26.69,17,38.73,27.3,44.31,37.87,59.19,100.66,40.82,172.27-.48,1.87-1,3.76-1.48,5.66-5.31,20.1-11.33,42.89-.54,63.28,6,11.35,16.44,18.41,27.23,18.41l.95,0c8.19-.31,14.86-4.49,19.75-8.1,43-31.69,56.85-88.44,60.83-111.37a169.34,169.34,0,0,0,2.64-21.56c8.73,10.13,17.19,20.7,25.16,31.45a559,559,0,0,1,45.62,72.59c28,53.31,56,110.66,63.34,174.08,6.63,57.24.14,115.53-19.3,173.25-34,101-97.55,151.4-124.68,172.93a330.13,330.13,0,0,1-95.33,53.08A369.92,369.92,0,0,1,341.15,880Z"/><path d="M341.31,28.47a151.56,151.56,0,0,1,22.12,9c2.64,1.34,5.48,3.14,8.49,5.05L375,44.46c12.64,7.88,25.93,16.53,37.42,26.35,21.43,18.32,35.35,42.47,41.36,71.8,5.53,26.95,4.15,57.94-4,89.61l-1.46,5.59c-5.53,20.91-12.41,46.95.35,71.06,7.87,14.89,22,24.14,36.75,24.14l1.36,0c11.25-.42,20.08-6,25.74-10.19C557,290,572.33,233,577.11,207.24q4.6,5.87,9,11.82a547.5,547.5,0,0,1,44.73,71.18c27.56,52.41,55,108.73,62.18,170.31a377.25,377.25,0,0,1-3.14,107.07,398.15,398.15,0,0,1-15.67,61.5c-33,98-94.78,147-121.16,167.93a319.38,319.38,0,0,1-92.22,51.36,359.27,359.27,0,0,1-119.7,20.77A325.9,325.9,0,0,1,257,858.31a300.7,300.7,0,0,1-79-33.71C145,804.46,83.46,767,47.2,679,31.07,639.82,22.46,596.6,21.61,550.51c-.74-40,4.59-73.1,7.14-89a439.93,439.93,0,0,1,11.41-51.3,427.56,427.56,0,0,1,15.56-44.78c5.37-13,11.45-25.92,18.07-38.29,5.82-10.87,12.18-21.57,18.9-31.8,1.26-1.92,2.53-3.82,3.82-5.72,1.39,6.42,3,12.6,4.59,18.63.76,2.89,1.54,5.89,2.27,8.79.11.46.25.92.39,1.38,14.33,44.49,45.49,71,83.35,71h.12a23.63,23.63,0,0,0,22.17-31.68c-10.38-28.69-16.86-54.18-14.73-85.38,1.66-24.23,6.92-44.82,15.64-61.19l.09-.17c15.72-30.18,41.36-47.37,66.15-64,30.44-20.42,61.93-41.53,67.14-84a94.52,94.52,0,0,0-2.38-34.56M309.2,0a2.08,2.08,0,0,0-1.77,3.15c10.05,17.06,17.36,37,14.88,57.26-7.67,62.52-92.74,67.2-131,140.66-11.33,21.27-16.47,45.75-18.12,69.84-2.34,34.26,4.63,62.86,16,94.18a2.1,2.1,0,0,1-2,2.82h-.09c-32.37,0-53.19-26.15-62.85-56.12-2.83-11.33-6.11-22.4-8.1-34-2.49-14.48-3.75-29.24-1.23-43.77a1.34,1.34,0,0,0,0-.66.45.45,0,0,0-.44-.36c-1.15,0-3.89,3.43-4.34,3.94q-8.55,9.65-16.44,19.85-10,12.94-19,26.66Q64,299.77,54.8,317a439.62,439.62,0,0,0-19,40.25,448.88,448.88,0,0,0-16.35,47.05,460.19,460.19,0,0,0-12,53.81C1.23,497-12.62,590.33,27.28,687.16c39,94.52,105.51,135.11,139.51,155.84,53.63,32.7,114,47.72,174.36,47.72a382.69,382.69,0,0,0,126.86-22,341.24,341.24,0,0,0,98.44-54.81c31.09-24.66,94-76.46,128.2-177.92,7.51-22.3,29.85-91,19.79-177.93-7.44-64.26-35.16-122-64.51-177.85a567.44,567.44,0,0,0-46.5-74q-13-17.52-27.26-33.93c-4.86-5.35-12-10.07-18.35-13.26a2.73,2.73,0,0,0-1.19-.38h0a.92.92,0,0,0-.93.73,1.36,1.36,0,0,0,.17.64c5.25,11.8,2.68,28.48.53,40.88-6.72,38.75-25,81.2-56.61,104.54-4.12,3-8.72,5.82-13.76,6h-.55c-7.47,0-14.08-5.81-17.71-12.68-9.73-18.38-2.27-40.93,2.93-61.22,17-66.11,9-137.61-44.25-183.13-12.45-10.64-26.16-19.62-40-28.26-4.36-2.72-8.62-5.58-13.19-7.91A191.49,191.49,0,0,0,339.36,5.34C329.7,2.54,319.48,1.8,309.59,0a2.56,2.56,0,0,0-.39,0Z"/></g><g id="cara"><ellipse cx="200" cy="521.22" rx="73" ry="82.5"/><path class="cls-2" d="M247.13,506.72c-6.31,8.64-18.28,7.19-24.89-.05-3.41-3.73-5.35-8.59-8.55-12.5-3.71-4.52-8.93-7.55-13.05-11.71-8.93-9-6.24-23.06,7-25.71,19.25-3.84,41.73,19,43.07,37.23A19.56,19.56,0,0,1,247.13,506.72Z"/><ellipse cx="471" cy="500.22" rx="73" ry="82.5"/><path class="cls-2" d="M518.13,485.72c-6.31,8.64-18.28,7.19-24.89-.05-3.41-3.73-5.35-8.59-8.55-12.5-3.71-4.52-8.93-7.55-13.05-11.71-8.93-9-6.24-23.06,7-25.71,19.25-3.84,41.73,19,43.07,37.23A19.56,19.56,0,0,1,518.13,485.72Z"/><path d="M347.63,600c-9.58,6-19.3,12-29.93,15.93s-22.38,5.58-33.35,2.79c-4.51-1.15-9-3.05-13.62-2.81s-9.63,3.65-9.47,8.3c.15,4.21,4.17,7.1,7.83,9.18,16.58,9.46,35.29,16.61,54.34,15.23a42.44,42.44,0,0,0,12.91-2.76A47.63,47.63,0,0,0,348,638.65c10.93-8.7,19.91-19.67,27.34-31.5,1.95-3.1,3.82-6.35,4.45-10,1.16-6.69-3.82-14-11.08-11.38C361.72,588.35,354,595.94,347.63,600Z"/></g></g></svg>