<svg width="85" height="79" viewBox="0 0 85 79" fill="none" xmlns="http://www.w3.org/2000/svg">
<path d="M82.5955 60.5152C85.2223 58.4939 85.7831 54.6365 83.8499 51.89C81.9167 49.1436 78.2274 48.5572 75.6006 50.5785L57.9364 64.1875H40.1393C38.8407 64.1875 37.7782 63.0766 37.7782 61.7188C37.7782 60.3609 38.8407 59.25 40.1393 59.25H42.5005H51.945C54.557 59.25 56.6673 57.0436 56.6673 54.3125C56.6673 51.5814 54.557 49.375 51.945 49.375H42.5005H40.1393H28.5845C24.2902 49.375 20.1287 50.9025 16.7788 53.6953L10.1529 59.25H4.72227C2.11027 59.25 0 61.4564 0 64.1875V74.0625C0 76.7936 2.11027 79 4.72227 79H28.3336H52.0188C56.2984 79 60.4746 77.565 63.9278 74.9111L82.6103 60.5152H82.5955ZM28.4369 59.25H28.5698C28.5255 59.25 28.4812 59.25 28.4369 59.25Z" fill="#D0D0D0"/>
<path d="M33.8057 12.3438V3.70312C33.8057 1.65098 35.3847 0 37.3474 0H44.4308C46.3935 0 47.9725 1.65098 47.9725 3.70312V12.3438H56.2365C58.1992 12.3438 59.7782 13.9947 59.7782 16.0469V23.4531C59.7782 25.5053 58.1992 27.1562 56.2365 27.1562H47.9725V35.7969C47.9725 37.849 46.3935 39.5 44.4308 39.5H37.3474C35.3847 39.5 33.8057 37.849 33.8057 35.7969V27.1562H25.5417C23.579 27.1562 22 25.5053 22 23.4531V16.0469C22 13.9947 23.579 12.3438 25.5417 12.3438H33.8057Z" fill="#AA82DA"/>
</svg>
