<svg width="30" height="28" viewBox="0 0 30 28" fill="none" xmlns="http://www.w3.org/2000/svg">
<path d="M11.6668 1.3125V4.375H8.7501C8.05738 4.375 7.50008 4.96016 7.50008 5.6875V8.3125C7.50008 9.03984 8.05738 9.625 8.7501 9.625H11.6668V12.6875C11.6668 13.4148 12.2241 14 12.9168 14H15.4168C16.1096 14 16.6668 13.4148 16.6668 12.6875V9.625H19.5835C20.2763 9.625 20.8336 9.03984 20.8336 8.3125V5.6875C20.8336 4.96016 20.2763 4.375 19.5835 4.375H16.6668V1.3125C16.6668 0.585156 16.1096 0 15.4168 0H12.9168C12.2241 0 11.6668 0.585156 11.6668 1.3125ZM29.1514 21.4484C30.0785 20.732 30.2764 19.3648 29.5941 18.3914C28.9118 17.418 27.6097 17.2102 26.6826 17.9266L20.4481 22.75H14.1668C13.7085 22.75 13.3335 22.3563 13.3335 21.875C13.3335 21.3937 13.7085 21 14.1668 21H15.0002H18.3335C19.2554 21 20.0002 20.218 20.0002 19.25C20.0002 18.282 19.2554 17.5 18.3335 17.5H15.0002H14.1668H10.0887C8.57301 17.5 7.10424 18.0414 5.92194 19.0312L3.58337 21H1.66668C0.7448 21 0 21.782 0 22.75V26.25C0 27.218 0.7448 28 1.66668 28H10.0001H18.3596C19.87 28 21.344 27.4914 22.5627 26.5508L29.1566 21.4484H29.1514ZM10.0366 21H10.0834C10.0678 21 10.0522 21 10.0366 21Z"/>
</svg>
