<svg width="29" height="28" viewBox="0 0 29 28" fill="none" xmlns="http://www.w3.org/2000/svg">
<path d="M14.0436 15.75C18.4048 15.75 21.9431 12.2227 21.9431 7.875C21.9431 3.52734 18.4048 0 14.0436 0C9.68241 0 6.14408 3.52734 6.14408 7.875C6.14408 12.2227 9.68241 15.75 14.0436 15.75ZM21.0654 17.5H18.0428C16.8249 18.0578 15.4699 18.375 14.0436 18.375C12.6173 18.375 11.2678 18.0578 10.0445 17.5H7.02181C3.14336 17.5 0 20.6336 0 24.5V25.375C0 26.8242 1.17944 28 2.63318 28H25.4541C26.9078 28 28.0872 26.8242 28.0872 25.375V24.5C28.0872 20.6336 24.9439 17.5 21.0654 17.5Z"/>
</svg>
