<svg width="16" height="22" viewBox="0 0 16 22" fill="none" xmlns="http://www.w3.org/2000/svg">
<path d="M8.24155 1C4.96527 1 2.84322 2.27746 1.17719 4.5557C0.874964 4.96898 0.968139 5.53563 1.38973 5.83984L3.16038 7.11754C3.58616 7.42477 4.19196 7.35293 4.5253 6.95551C5.55347 5.72969 6.31615 5.02391 7.92217 5.02391C9.18492 5.02391 10.7468 5.7973 10.7468 6.96262C10.7468 7.84355 9.98265 8.29598 8.73583 8.96121C7.28185 9.73699 5.35776 10.7025 5.35776 13.1177V13.5C5.35776 14.0178 5.7988 14.4375 6.34287 14.4375H9.31754C9.86161 14.4375 10.3027 14.0178 10.3027 13.5V13.2745C10.3027 11.6003 15.4444 11.5305 15.4444 7C15.4445 3.58813 11.7256 1 8.24155 1ZM7.83023 15.5882C6.26242 15.5882 4.9869 16.8021 4.9869 18.2941C4.9869 19.7861 6.26242 21 7.83023 21C9.39803 21 10.6735 19.7861 10.6735 18.2941C10.6735 16.8021 9.39803 15.5882 7.83023 15.5882Z" fill="url(#paint0_linear_719_991)" stroke="#528769" stroke-width="0.7"/>
<defs>
<linearGradient id="paint0_linear_719_991" x1="8.22222" y1="1" x2="8.22222" y2="21" gradientUnits="userSpaceOnUse">
<stop stop-color="#98CBAE"/>
<stop offset="1" stop-color="#508567"/>
</linearGradient>
</defs>
</svg>
