<svg width="20" height="19" viewBox="0 0 20 19" fill="none" xmlns="http://www.w3.org/2000/svg">
<path d="M13.0522 0.545508C12.4388 1.13981 11.8636 1.70677 11.2693 2.24283C11.1504 2.34743 10.9127 2.34505 10.7261 2.33316C6.13213 2.04195 2.5913 5.40094 2.80168 9.85343C2.97284 13.4478 5.91105 16.4561 9.40435 16.6118C13.3862 16.7913 16.5823 14.218 17.0672 10.4382C17.116 10.0662 17.2194 9.66563 17.135 9.31856C16.9306 8.47941 17.2919 7.94573 17.8969 7.45127C18.244 7.16838 18.5245 6.80348 18.8537 6.45522C20.4595 9.45406 18.9191 14.5199 15.7241 16.9862C13.951 18.346 11.7538 19.0345 9.52174 18.9299C7.28964 18.8252 5.16659 17.934 3.52849 16.4142C1.89039 14.8944 0.842916 12.844 0.571535 10.626C0.300155 8.40795 0.822374 6.16546 2.04573 4.29554C4.59884 0.356521 9.46616 -0.819004 13.0522 0.545508Z" fill="#E12A2A"/>
<path d="M15.0097 8.02735C15.9678 10.5864 14.2241 13.7623 11.4915 14.5563C8.59131 15.4014 5.62694 13.7505 4.8603 10.855C4.08533 7.92632 5.7874 5.02138 8.73988 4.33318C9.39599 4.18104 10.1056 4.23572 10.789 4.24523C10.9804 4.24523 11.2942 4.39499 11.3346 4.53643C11.4344 4.88707 11.6317 5.2591 11.2645 5.63827C10.7796 6.16972 10.1117 6.49832 9.3948 6.55824C7.82229 6.73297 6.80841 8.189 6.96531 9.76033C7.02283 10.4992 7.35889 11.1886 7.90549 11.6891C8.45209 12.1896 9.1684 12.4637 9.90947 12.4561C11.5937 12.468 12.8667 11.3863 12.9463 9.69614C12.9856 8.84986 13.5323 8.47545 14.0303 8.05588C14.2324 7.88591 14.6971 8.02735 15.0097 8.02735Z" fill="#E12A2A"/>
<path d="M16.1721 6.99285C15.5065 6.88588 15.0144 6.82645 14.5331 6.72304C14.1432 6.64103 13.8734 6.75038 13.5952 7.03802C12.6444 8.02218 11.6673 8.97425 10.7046 9.94295C10.3837 10.2674 10.0235 10.4303 9.5861 10.2175C9.03459 9.9489 8.97041 9.2809 9.46724 8.771C10.4181 7.79278 11.3845 6.82288 12.3686 5.87557C12.6836 5.57129 12.7953 5.28959 12.7252 4.83911C12.3615 2.59741 12.2676 3.10613 13.7949 1.54431C14.0576 1.27569 14.3215 1.00706 14.5937 0.746759C15.0691 0.293903 15.4019 0.362842 15.6634 0.984479C15.8833 1.4932 16.0521 2.02569 16.3029 2.51777C16.4333 2.76919 16.6357 2.97608 16.8841 3.11207C17.3738 3.36287 17.9063 3.53165 18.4162 3.74678C19.0474 4.01303 19.1389 4.39101 18.6777 4.86882C18.1262 5.43816 17.5794 6.01344 16.9899 6.53999C16.7272 6.76464 16.3647 6.88707 16.1721 6.99285Z" fill="#299EE9"/>
</svg>
