<svg width="27" height="28" viewBox="0 0 27 28" fill="none" xmlns="http://www.w3.org/2000/svg">
<path d="M5.24261 27L5.24261 1C5.24261 0.734784 5.10452 0.48043 4.85871 0.292893C4.6129 0.105357 4.27951 0 3.93188 0L1.31041 0C0.962777 0 0.629382 0.105357 0.383572 0.292893C0.137761 0.48043 -0.000329971 0.734784 -0.000329971 1L-0.000329971 27C-0.000329971 27.2652 0.137761 27.5196 0.383572 27.7071C0.629382 27.8946 0.962777 28 1.31041 28H3.93188C4.27951 28 4.6129 27.8946 4.85871 27.7071C5.10452 27.5196 5.24261 27.2652 5.24261 27ZM15.7285 27.1981V10.8019C15.7286 10.6965 15.7015 10.5922 15.6487 10.4949C15.5959 10.3976 15.5185 10.3092 15.4209 10.2347C15.3233 10.1602 15.2074 10.1011 15.0798 10.0609C14.9522 10.0206 14.8155 9.99992 14.6775 10H11.5366C11.3986 9.99992 11.2618 10.0206 11.1343 10.0609C11.0067 10.1011 10.8908 10.1602 10.7932 10.2347C10.6956 10.3092 10.6181 10.3976 10.5654 10.4949C10.5126 10.5922 10.4855 10.6965 10.4856 10.8019L10.4856 27.1981C10.4855 27.3035 10.5126 27.4078 10.5654 27.5051C10.6181 27.6024 10.6956 27.6908 10.7932 27.7653C10.8908 27.8398 11.0067 27.8989 11.1343 27.9391C11.2618 27.9794 11.3986 28.0001 11.5366 28H14.6775C14.8155 28.0001 14.9522 27.9794 15.0798 27.9391C15.2074 27.8989 15.3233 27.8398 15.4209 27.7653C15.5185 27.6908 15.5959 27.6024 15.6487 27.5051C15.7015 27.4078 15.7286 27.3035 15.7285 27.1981Z"/>
<path d="M20.5974 27.1665V5.49984C20.5974 5.27882 20.7454 5.06686 21.0087 4.91058C21.2721 4.7543 21.6293 4.6665 22.0018 4.6665H24.8105C25.1829 4.6665 25.5401 4.7543 25.8035 4.91058C26.0669 5.06686 26.2148 5.27882 26.2148 5.49984L26.2148 27.1665C26.2148 27.3875 26.0669 27.5995 25.8035 27.7558C25.5401 27.912 25.1829 27.9998 24.8105 27.9998H22.0018C21.6293 27.9998 21.2721 27.912 21.0087 27.7558C20.7454 27.5995 20.5974 27.3875 20.5974 27.1665Z"/>
</svg>
