<svg xmlns="http://www.w3.org/2000/svg" viewBox="0 0 746 891.93"><defs><style>.cls-1{fill:#fe845f;}.cls-2{fill:#e03a1e;}.cls-3{fill:#f25d3a;}.cls-4{fill:#fff;}</style></defs><g id="Camada_2" data-name="Camada 2"><g id="Lumi3"><path class="cls-1" d="M743.34,459.28c-7.75-64.26-36.58-122-67.12-177.84-21.24-38.83-45.55-75.68-26.07-121.27a.65.65,0,0,0,0-.48c-.7-1.88-14.24,1.26-20.19,3.24-22,7.35-33.82,30.19-37,37-3.87,8.31-3.22,10.54-8,33-7.14,33.58-10.9,50.67-20,65-4.13,6.51-20.35,32.06-37,29-11.79-2.16-20.52-18.07-22-32-2.62-24.68,18.44-34.61,29-66,10.15-30.19,3.07-57.89,1-66,0,0-9.9-38.73-69.06-96.56-2.22-2.17-4.45-4.25-4.45-4.25h0a251.1,251.1,0,0,0-56.12-39.34c-16.74-8.68-34.53-15.87-53-20-13.83-3.12-27.76-4.06-41.54-.3-1,.27-2.18.72-2.41,1.73-.45,2,2.88,4.26,4,5.44,1.91,2,3.49,4.19,5.33,6.19,2.94,3.18,18,22.79,16.8,43.38-.29,4.8-1.77,14.88-15.61,31.74-19.26,23.48-36.54,28.52-61,45-11.3,7.62-38.7,26.43-59.69,57.41-8.43,12.45-26.05,39-28.89,77.08-2.39,32,6.15,64.5,25.11,94.22-25.48-2.12-45.17-23.42-57.82-45.64-15.27-26.83-23.68-53-18.13-83.73a1.34,1.34,0,0,0,0-.66c-.57-1.66-4.42,3-5,3.59q-8.88,9.65-17.1,19.84-10.44,13-19.8,26.66Q66.58,301,57,318.17a434.24,434.24,0,0,0-36.77,87.3A446.69,446.69,0,0,0,7.79,459.28c-6.51,39-20.93,132.26,20.6,229.1,40.52,94.52,109.77,135.1,145.14,155.83,95.64,56,211.82,60.16,313.41,25.73a359.72,359.72,0,0,0,102.42-54.8c32.35-24.67,97.83-76.47,133.38-177.93C730.56,614.91,753.81,546.17,743.34,459.28Z"/><path class="cls-2" d="M632.24,216.45c.06-13.15-1.93-27.79-10.22-27-12.84,1.16-24.57,31.31-28,41.12-5.84,16.61-8.88,34.09-14.29,50.85-3.62,11.24-8.29,22.1-13,32.95-3.27,7.6-6.8,15.55-13.39,20.57-11.77,9-28.46,5.5-42.75,1.61,4.67,13.33,21,23.56,34.43,26a37.37,37.37,0,0,0,6.76.62c27.72,0,46.57-29.7,52.76-39.45,11.4-18,15.75-38.39,22.94-72.21,1.58-7.41,2.59-12.75,3.34-16.66A119.11,119.11,0,0,0,632.24,216.45Z"/><path class="cls-2" d="M383.78,41.66c-3.08-7-7.6-13.14-13.94-17.18-9.65-6.14-21.29-8.24-32.66-9.62-5.05,10.07,3.74,21.21,6.54,32.12,6,23.34-19.42,52.85-35.35,66.9-17.1,15.08-37,26.51-55.67,39.62-15.72,11-30.94,23.63-41.72,39.72-12.17,18.16-16.84,38.79-21.68,60-3.73,16.32-2.72,31.36-4.32,47.55,5,17.24,8,35.08,12.66,52.45,1,3.76,2.14,7.7,4.9,10.44s7.74,3.65,10.46.87,1.89-7.12.93-10.77c-1.47-5.6-3-11.19-4.17-16.86-7.66-37.81,5.29-72.13,26.34-103.19,20.8-30.7,48.38-49.29,58.76-56.29,7.27-4.9,14.05-8.88,20.61-12.73,17.3-10.15,33.64-19.73,51.19-41.13,14.2-17.3,21.55-33.16,22.46-48.48C389.74,64.56,388.36,52.12,383.78,41.66Z"/><path class="cls-2" d="M104.64,291q-1.19-2.43-2.41-4.85a4.08,4.08,0,0,0-2-2.29c-1.24-.41-2.51.43-3.52,1.24C82.46,296.58,73,312.81,64.26,328.82c-13.47,24.56-26.3,49.83-32.95,77-4,16.34-5.71,33.15-7.41,49.89l-6.64,65.5-4.79,47.24a173.17,173.17,0,0,0-1.3,22.4c.8,27.49,17,47.66,23.74,72.86,7.18,27.09,15.56,53.31,28,78.54.46.93.92,1.84,1.38,2.75a119.79,119.79,0,0,1,15.48,16.41c4.21,5.61,8.08,10.64,15.2,11.7,4.26-.37,8.54-.57,12.81-.62a313.63,313.63,0,0,1-23.84-40.59c-20-40.62-31.92-86-35.42-134.87-3-42.4,1-77.93,2.94-95a454.58,454.58,0,0,1,9.75-55.15,439.17,439.17,0,0,1,32.56-90.23C99.58,344.78,106,333,112.89,321.77c1.15-1.89,2.34-3.77,3.52-5.64C112.5,307.73,108.7,299.33,104.64,291Z"/><path class="cls-3" d="M708.52,660.88c5.87-17.49,3.59-37.54,8.63-55.79s12-36.06,16.21-54.59a194.58,194.58,0,0,0-11.14-120.14c3.09,27.2-.38,56.87-4.32,83.83a408.61,408.61,0,0,1-15.26,65.67c-33.2,105-99.85,159.17-128.31,182.29A358,358,0,0,1,473.87,820a413,413,0,0,1-132,26.22,376.06,376.06,0,0,1-93.69-8.71,340.94,340.94,0,0,1-88.68-33.21c-13.84-7.54-32.11-17.51-51.81-31.79-3.42,5.59-2.78,6.66,1.37,11.64,7.06,8.5,15.39,15.84,23.68,23.15,14.68,12.94,26.9,24,45,31.82,21.79,9.41,44.21,14.52,66.53,22a394.35,394.35,0,0,0,226.05,7.42c11.08-3,22.1-6.43,32.36-11.57,14.62-7.32,27.47-17.89,42.26-24.87,9.11-4.3,18.9-7.21,27.49-12.46,9.86-6,17.67-14.82,25.31-23.49l84.21-95.48C692.51,688.62,703.41,676.12,708.52,660.88Z"/><path d="M350.06,24.53C364.65,28,380.18,34,396.25,42.29a229.11,229.11,0,0,1,51.14,35.79l.21.2c.34.32,2.17,2,4,3.8,51.77,50.61,62.69,84.85,63.19,86.52,1.92,7.52,7.41,29.54-.59,53.33-3.55,10.55-8.61,18-14,25.94-8.63,12.77-18.42,27.24-16.07,49.38S501,344.31,524,348.54a37.37,37.37,0,0,0,6.76.62c27.72,0,46.57-29.7,52.76-39.45,11.4-18,15.75-38.39,22.94-72.21,1.58-7.41,2.59-12.75,3.34-16.66,1.53-8.06,1.67-8.6,3.08-11.62a66.67,66.67,0,0,1,8.1-13.13c.71,32.43,16.49,60.85,30.94,86.86,1.65,3,3.35,6,5,9,28.62,52.32,57.19,108.54,64.58,169.93a361.48,361.48,0,0,1-3.26,106.71A385.08,385.08,0,0,1,702,629.94c-34.27,97.81-98.53,146.8-126,167.72a336.7,336.7,0,0,1-96.15,51.47A388.7,388.7,0,0,1,355,870a353.21,353.21,0,0,1-87.87-10.91,320.46,320.46,0,0,1-82.44-33.8C150.26,805.1,86.26,767.6,48.58,679.72c-16.73-39-25.66-82.08-26.54-128-.76-39.84,4.77-72.91,7.42-88.79a427.34,427.34,0,0,1,11.83-51.16,412.74,412.74,0,0,1,34.92-82.89C82.26,318,88.86,307.32,95.84,297.1c1.7-2.47,3.42-4.94,5.17-7.38,4.44,15.41,11.14,28.78,17.6,40.14C138,364,164.7,384.12,193.7,386.54c.62,0,1.23.08,1.84.08a22,22,0,0,0,18.52-33.79c-16.26-25.48-23.77-53.42-21.73-80.77,2.45-32.87,17.8-55.51,25.17-66.4,19-28.09,44.28-45.1,53.78-51.51,6.65-4.48,12.86-8.12,18.86-11.64,15.83-9.29,30.78-18.06,46.85-37.64C350,89,356.7,74.52,357.54,60.5c.8-13.49-2.87-26-7.48-36M330.76,0a71.57,71.57,0,0,0-18.91,2.45c-1,.27-2.18.72-2.41,1.73-.45,2,2.88,4.26,4,5.44,1.91,2,3.49,4.19,5.33,6.19,2.94,3.18,18,22.79,16.8,43.38-.29,4.8-1.77,14.88-15.61,31.74-19.26,23.48-36.54,28.52-61,45-11.3,7.62-38.7,26.43-59.69,57.41-8.43,12.45-26.05,39-28.89,77.08-2.39,32,6.15,64.5,25.11,94.22-25.48-2.12-45.17-23.42-57.82-45.64-15.27-26.83-23.68-53-18.13-83.73a1.34,1.34,0,0,0,0-.66.46.46,0,0,0-.46-.35c-1.19,0-4,3.43-4.52,3.94q-8.88,9.65-17.1,19.84-10.44,13-19.8,26.66Q66.58,301,57,318.17a434.24,434.24,0,0,0-36.77,87.3A446.69,446.69,0,0,0,7.79,459.28c-6.51,39-20.93,132.26,20.6,229.1,40.52,94.52,109.77,135.1,145.14,155.83,55.81,32.7,118.61,47.72,181.42,47.72a412.66,412.66,0,0,0,132-22,359.72,359.72,0,0,0,102.42-54.8c32.35-24.67,97.83-76.47,133.38-177.93,7.82-22.3,31.07-91,20.6-177.93-7.75-64.26-36.58-122-67.12-177.84-21.24-38.83-45.55-75.68-26.07-121.27a.65.65,0,0,0,0-.48c-.15-.41-.9-.58-2-.58-4.15,0-13.48,2.27-18.15,3.82-22,7.35-33.82,30.19-37,37-3.87,8.31-3.22,10.54-8,33-7.14,33.58-10.9,50.67-20,65-3.9,6.14-18.57,29.26-34.21,29.26a15.49,15.49,0,0,1-2.79-.26c-11.79-2.16-20.52-18.07-22-32-2.62-24.68,18.44-34.61,29-66,10.15-30.19,3.07-57.89,1-66,0,0-9.9-38.73-69.06-96.56-2.22-2.17-4.45-4.25-4.45-4.25h0a251.1,251.1,0,0,0-56.12-39.34c-16.74-8.68-34.53-15.87-53-20A102.74,102.74,0,0,0,330.76,0Z"/></g><g id="cara3"><ellipse cx="208" cy="520.43" rx="73" ry="82.5"/><path class="cls-4" d="M255.13,505.94c-6.31,8.63-18.28,7.18-24.89-.05-3.41-3.74-5.35-8.59-8.55-12.5-3.71-4.53-8.93-7.55-13.05-11.71-8.93-9-6.24-23.07,7-25.72,19.25-3.83,41.73,19,43.07,37.23A19.6,19.6,0,0,1,255.13,505.94Z"/><ellipse cx="479" cy="499.43" rx="73" ry="82.5"/><path class="cls-4" d="M526.13,484.94c-6.31,8.63-18.28,7.18-24.89-.05-3.41-3.74-5.35-8.59-8.55-12.5-3.71-4.53-8.93-7.55-13.05-11.71-8.93-9-6.24-23.07,7-25.72,19.25-3.83,41.73,19,43.07,37.23A19.6,19.6,0,0,1,526.13,484.94Z"/><path d="M278.59,631.64C280.13,619,289.3,610.12,293,606.93c13.54-11.64,29.57-12.57,37-13,7.23-.42,24.95-1.19,41,10,2.75,1.92,15.9,11.1,17.49,24.85.22,2,.8,7.3-2.14,9.62-.66.51-3.41,2.39-11.68-1a31.92,31.92,0,0,1-6.86-3.76c-9.52-6.94-11.72-10.51-16.49-13.81-8.74-6.05-18.59-6-21.32-5.92-2.43.09-13.57.77-22.46,8.82-9.4,8.53-8.09,17.9-17.5,21.46-1.09.41-5.67,2.14-8.75,0C277.4,641.49,278.26,634.37,278.59,631.64Z"/><path d="M305.37,447.72c-8.87,12.55-73.89-16.1-78.8-18.13-32.18-13.28-64.64-34.75-62.85-38.47,1.3-2.7,19.3,6.77,68.28,21.81,43.27,13.3,74.21,19.73,74.32,31.33A5.77,5.77,0,0,1,305.37,447.72Z"/><path d="M357.61,446.5c11.52,11.47,73.85-30.13,78.58-33.12,31-19.65,60.84-47.89,58.3-51.43-1.85-2.58-18.83,10.53-67,35.05C385,418.67,354,431,356,443.06A6,6,0,0,0,357.61,446.5Z"/></g></g></svg>